<?xml version="1.0" standalone="no"?>
<!DOCTYPE svg PUBLIC "-//W3C//DTD SVG 20010904//EN"
 "http://www.w3.org/TR/2001/REC-SVG-20010904/DTD/svg10.dtd">
<svg version="1.0" xmlns="http://www.w3.org/2000/svg"
 width="16.000000pt" height="16.000000pt" viewBox="0 0 16.000000 16.000000"
 preserveAspectRatio="xMidYMid meet">
<metadata>
Created by potrace 1.11, written by Peter Selinger 2001-2013
</metadata>
<g transform="translate(0.000000,16.000000) scale(0.012030,-0.012030)"
fill="#000000" stroke="none">
<path d="M654 1162 l-91 -157 -187 -5 -188 -5 -94 -160 c-51 -88 -94 -163 -94
-166 0 -5 176 -315 188 -329 2 -3 87 -5 190 -6 105 0 187 -4 190 -10 2 -5 43
-76 91 -159 l87 -150 193 0 193 0 90 155 c49 85 92 160 95 167 2 6 -15 44 -38
85 -23 40 -65 112 -92 160 l-49 88 40 67 c87 147 142 244 142 249 0 4 -42 80
-92 170 l-93 163 -195 1 -195 0 -91 -158z m550 -12 c47 -83 86 -155 86 -161 0
-6 -39 -78 -86 -160 l-86 -149 -178 0 -178 0 -80 138 c-44 75 -84 146 -89 157
-8 17 5 47 79 173 l90 152 178 0 178 0 86 -150z m-647 -179 c5 -3 48 -73 95
-154 l86 -148 -75 -132 c-117 -205 -84 -182 -269 -181 -88 1 -166 2 -175 3
-15 1 -189 285 -189 309 0 6 26 55 58 109 32 54 70 121 85 148 l28 51 173 1
c95 0 178 -2 183 -6z m650 -471 l89 -155 -63 -110 c-35 -60 -76 -130 -91 -155
l-28 -45 -178 1 -178 0 -27 50 c-15 27 -53 92 -84 146 -31 53 -57 103 -57 111
0 18 155 288 174 302 7 6 86 10 184 10 l171 0 88 -155z"/>
</g>
</svg>
