<?xml version="1.0" encoding="utf-8"?>
<!-- Generator: Adobe Illustrator 21.1.0, SVG Export Plug-In . SVG Version: 6.00 Build 0)  -->
<svg version="1.1" id="Layer_1" xmlns="http://www.w3.org/2000/svg" xmlns:xlink="http://www.w3.org/1999/xlink" x="0px" y="0px"
	 viewBox="0 0 16 16" style="enable-background:new 0 0 16 16;" xml:space="preserve">
<style type="text/css">
	.st0{fill:#FFFFFF;}
</style>
<g transform="translate(0.000000,16.000000) scale(0.012030,-0.012030)">
	<path class="st0" d="M654,1162l-91-157l-187-5l-188-5L94,835C43,747,0,672,0,669c0-5,176-315,188-329c2-3,87-5,190-6
		c105,0,187-4,190-10c2-5,43-76,91-159l87-150h193h193l90,155c49,85,92,160,95,167c2,6-15,44-38,85c-23,40-65,112-92,160l-49,88
		l40,67c87,147,142,244,142,249c0,4-42,80-92,170l-93,163l-195,1H745L654,1162z M1204,1150c47-83,86-155,86-161s-39-78-86-160
		l-86-149H940H762l-80,138c-44,75-84,146-89,157c-8,17,5,47,79,173l90,152h178h178L1204,1150z M557,971c5-3,48-73,95-154l86-148
		l-75-132c-117-205-84-182-269-181c-88,1-166,2-175,3c-15,1-189,285-189,309c0,6,26,55,58,109s70,121,85,148l28,51l173,1
		C469,977,552,975,557,971z M1207,500l89-155l-63-110c-35-60-76-130-91-155l-28-45l-178,1H758l-27,50c-15,27-53,92-84,146
		c-31,53-57,103-57,111c0,18,155,288,174,302c7,6,86,10,184,10h171L1207,500z"/>
</g>
</svg>
